<mxfile host="app.diagrams.net" agent="Mozilla/5.0 (Windows NT 10.0; Win64; x64) AppleWebKit/537.36 (KHTML, like Gecko) Chrome/136.0.0.0 Safari/537.36 Edg/136.0.0.0" version="27.0.3">
  <diagram name="Page-1" id="MkDuvUE-qkH43eh18S8C">
    <mxGraphModel dx="544" dy="351" grid="1" gridSize="10" guides="1" tooltips="1" connect="1" arrows="1" fold="1" page="1" pageScale="1" pageWidth="400" pageHeight="100" math="0" shadow="0">
      <root>
        <mxCell id="0" />
        <mxCell id="1" parent="0" />
        <mxCell id="L2FVpZfAekpMsSmZwNJy-1" value="Redliner" style="text;html=1;align=left;verticalAlign=middle;whiteSpace=wrap;rounded=0;fontStyle=1;fontSize=80;fontFamily=Georgia;fontColor=#000000;spacingLeft=10;" vertex="1" parent="1">
          <mxGeometry x="5" y="13" width="376" height="70" as="geometry" />
        </mxCell>
        <mxCell id="L2FVpZfAekpMsSmZwNJy-2" value="Red" style="text;html=1;align=left;verticalAlign=middle;whiteSpace=wrap;rounded=0;fontStyle=1;fontSize=80;fontFamily=Georgia;spacingLeft=10;fontColor=#3333FF;" vertex="1" parent="1">
          <mxGeometry x="5" y="13" width="350" height="70" as="geometry" />
        </mxCell>
        <mxCell id="L2FVpZfAekpMsSmZwNJy-3" value="is loading..." style="text;html=1;align=right;verticalAlign=middle;whiteSpace=wrap;rounded=0;fontStyle=1;fontSize=15;fontFamily=Georgia;spacingLeft=2;fontColor=#CC6600;" vertex="1" parent="1">
          <mxGeometry x="285" y="79" width="100" height="20" as="geometry" />
        </mxCell>
        <mxCell id="L2FVpZfAekpMsSmZwNJy-4" value="" style="endArrow=none;html=1;rounded=0;strokeColor=#CC6600;strokeWidth=5;" edge="1" parent="1">
          <mxGeometry width="50" height="50" relative="1" as="geometry">
            <mxPoint x="25" y="89" as="sourcePoint" />
            <mxPoint x="285" y="89" as="targetPoint" />
          </mxGeometry>
        </mxCell>
      </root>
    </mxGraphModel>
  </diagram>
</mxfile>
